<?xml version="1.0" encoding="UTF-8" standalone="no"?>
<!-- Created with Inkscape (http://www.inkscape.org/) -->

<svg
   xmlns:dc="http://purl.org/dc/elements/1.1/"
   xmlns:cc="http://creativecommons.org/ns#"
   xmlns:rdf="http://www.w3.org/1999/02/22-rdf-syntax-ns#"
   xmlns:svg="http://www.w3.org/2000/svg"
   xmlns="http://www.w3.org/2000/svg"
   xmlns:sodipodi="http://sodipodi.sourceforge.net/DTD/sodipodi-0.dtd"
   xmlns:inkscape="http://www.inkscape.org/namespaces/inkscape"
   version="1.1"
   id="svg3713"
   xml:space="preserve"
   width="297mm"
   height="210mm"
   viewBox="0 0 1122.5197 793.70079"
   sodipodi:docname="histogram_snp10_sns1_mn1_mx200000000.svg"
   inkscape:version="0.92.3 (2405546, 2018-03-11)"><metadata
     id="metadata3719"><rdf:RDF><cc:Work
         rdf:about=""><dc:format>image/svg+xml</dc:format><dc:type
           rdf:resource="http://purl.org/dc/dcmitype/StillImage" /><dc:title></dc:title></cc:Work></rdf:RDF></metadata><defs
     id="defs3717"><clipPath
       clipPathUnits="userSpaceOnUse"
       id="clipPath3749"><path
         d="M 50.88,86.28 H 791.04 V 509.16 H 50.88 Z"
         id="path3747"
         inkscape:connector-curvature="0"
         style="clip-rule:evenodd" /></clipPath><clipPath
       clipPathUnits="userSpaceOnUse"
       id="clipPath3761"><path
         d="M 50.88,86.28 H 791.04 V 509.16 H 50.88 Z"
         id="path3759"
         inkscape:connector-curvature="0"
         style="clip-rule:evenodd" /></clipPath><clipPath
       clipPathUnits="userSpaceOnUse"
       id="clipPath3773"><path
         d="M 50.88,86.28 H 791.04 V 509.16 H 50.88 Z"
         id="path3771"
         inkscape:connector-curvature="0"
         style="clip-rule:evenodd" /></clipPath><clipPath
       clipPathUnits="userSpaceOnUse"
       id="clipPath3785"><path
         d="M 50.88,86.28 H 791.04 V 509.16 H 50.88 Z"
         id="path3783"
         inkscape:connector-curvature="0"
         style="clip-rule:evenodd" /></clipPath><clipPath
       clipPathUnits="userSpaceOnUse"
       id="clipPath3797"><path
         d="M 50.88,86.28 H 791.04 V 509.16 H 50.88 Z"
         id="path3795"
         inkscape:connector-curvature="0"
         style="clip-rule:evenodd" /></clipPath><clipPath
       clipPathUnits="userSpaceOnUse"
       id="clipPath3809"><path
         d="M 50.88,86.28 H 791.04 V 509.16 H 50.88 Z"
         id="path3807"
         inkscape:connector-curvature="0"
         style="clip-rule:evenodd" /></clipPath><clipPath
       clipPathUnits="userSpaceOnUse"
       id="clipPath3821"><path
         d="M 50.88,86.28 H 791.04 V 509.16 H 50.88 Z"
         id="path3819"
         inkscape:connector-curvature="0"
         style="clip-rule:evenodd" /></clipPath><clipPath
       clipPathUnits="userSpaceOnUse"
       id="clipPath3833"><path
         d="M 50.88,86.28 H 791.04 V 509.16 H 50.88 Z"
         id="path3831"
         inkscape:connector-curvature="0"
         style="clip-rule:evenodd" /></clipPath><clipPath
       clipPathUnits="userSpaceOnUse"
       id="clipPath3845"><path
         d="M 50.88,86.28 H 791.04 V 509.16 H 50.88 Z"
         id="path3843"
         inkscape:connector-curvature="0"
         style="clip-rule:evenodd" /></clipPath><clipPath
       clipPathUnits="userSpaceOnUse"
       id="clipPath3857"><path
         d="M 50.88,86.28 H 791.04 V 509.16 H 50.88 Z"
         id="path3855"
         inkscape:connector-curvature="0"
         style="clip-rule:evenodd" /></clipPath><clipPath
       clipPathUnits="userSpaceOnUse"
       id="clipPath3869"><path
         d="M 50.88,86.28 H 791.04 V 509.16 H 50.88 Z"
         id="path3867"
         inkscape:connector-curvature="0"
         style="clip-rule:evenodd" /></clipPath><clipPath
       clipPathUnits="userSpaceOnUse"
       id="clipPath3881"><path
         d="M 50.88,86.28 H 791.04 V 509.16 H 50.88 Z"
         id="path3879"
         inkscape:connector-curvature="0"
         style="clip-rule:evenodd" /></clipPath><clipPath
       clipPathUnits="userSpaceOnUse"
       id="clipPath3893"><path
         d="M 50.88,86.28 H 791.04 V 509.16 H 50.88 Z"
         id="path3891"
         inkscape:connector-curvature="0"
         style="clip-rule:evenodd" /></clipPath><clipPath
       clipPathUnits="userSpaceOnUse"
       id="clipPath3905"><path
         d="M 50.88,86.28 H 791.04 V 509.16 H 50.88 Z"
         id="path3903"
         inkscape:connector-curvature="0"
         style="clip-rule:evenodd" /></clipPath><clipPath
       clipPathUnits="userSpaceOnUse"
       id="clipPath3917"><path
         d="M 50.88,86.28 H 791.04 V 509.16 H 50.88 Z"
         id="path3915"
         inkscape:connector-curvature="0"
         style="clip-rule:evenodd" /></clipPath><clipPath
       clipPathUnits="userSpaceOnUse"
       id="clipPath3929"><path
         d="M 50.88,86.28 H 791.04 V 509.16 H 50.88 Z"
         id="path3927"
         inkscape:connector-curvature="0"
         style="clip-rule:evenodd" /></clipPath><clipPath
       clipPathUnits="userSpaceOnUse"
       id="clipPath3941"><path
         d="M 50.88,86.28 H 791.04 V 509.16 H 50.88 Z"
         id="path3939"
         inkscape:connector-curvature="0"
         style="clip-rule:evenodd" /></clipPath><clipPath
       clipPathUnits="userSpaceOnUse"
       id="clipPath3953"><path
         d="M 50.88,86.28 H 791.04 V 509.16 H 50.88 Z"
         id="path3951"
         inkscape:connector-curvature="0"
         style="clip-rule:evenodd" /></clipPath><clipPath
       clipPathUnits="userSpaceOnUse"
       id="clipPath3965"><path
         d="M 50.88,86.28 H 791.04 V 509.16 H 50.88 Z"
         id="path3963"
         inkscape:connector-curvature="0"
         style="clip-rule:evenodd" /></clipPath><clipPath
       clipPathUnits="userSpaceOnUse"
       id="clipPath3977"><path
         d="M 50.88,86.28 H 791.04 V 509.16 H 50.88 Z"
         id="path3975"
         inkscape:connector-curvature="0"
         style="clip-rule:evenodd" /></clipPath><clipPath
       clipPathUnits="userSpaceOnUse"
       id="clipPath3989"><path
         d="M 50.88,86.28 H 791.04 V 509.16 H 50.88 Z"
         id="path3987"
         inkscape:connector-curvature="0"
         style="clip-rule:evenodd" /></clipPath><clipPath
       clipPathUnits="userSpaceOnUse"
       id="clipPath4001"><path
         d="M 50.88,86.28 H 791.04 V 509.16 H 50.88 Z"
         id="path3999"
         inkscape:connector-curvature="0"
         style="clip-rule:evenodd" /></clipPath><clipPath
       clipPathUnits="userSpaceOnUse"
       id="clipPath4013"><path
         d="M 50.88,86.28 H 791.04 V 509.16 H 50.88 Z"
         id="path4011"
         inkscape:connector-curvature="0"
         style="clip-rule:evenodd" /></clipPath><clipPath
       clipPathUnits="userSpaceOnUse"
       id="clipPath4025"><path
         d="M 50.88,86.28 H 791.04 V 509.16 H 50.88 Z"
         id="path4023"
         inkscape:connector-curvature="0"
         style="clip-rule:evenodd" /></clipPath><clipPath
       clipPathUnits="userSpaceOnUse"
       id="clipPath4037"><path
         d="M 50.88,86.28 H 791.04 V 509.16 H 50.88 Z"
         id="path4035"
         inkscape:connector-curvature="0"
         style="clip-rule:evenodd" /></clipPath><clipPath
       clipPathUnits="userSpaceOnUse"
       id="clipPath4049"><path
         d="M 50.88,86.28 H 791.04 V 509.16 H 50.88 Z"
         id="path4047"
         inkscape:connector-curvature="0"
         style="clip-rule:evenodd" /></clipPath><clipPath
       clipPathUnits="userSpaceOnUse"
       id="clipPath4061"><path
         d="M 50.88,86.28 H 791.04 V 509.16 H 50.88 Z"
         id="path4059"
         inkscape:connector-curvature="0"
         style="clip-rule:evenodd" /></clipPath><clipPath
       clipPathUnits="userSpaceOnUse"
       id="clipPath4073"><path
         d="M 50.88,86.28 H 791.04 V 509.16 H 50.88 Z"
         id="path4071"
         inkscape:connector-curvature="0"
         style="clip-rule:evenodd" /></clipPath><clipPath
       clipPathUnits="userSpaceOnUse"
       id="clipPath4085"><path
         d="M 50.88,86.28 H 791.04 V 509.16 H 50.88 Z"
         id="path4083"
         inkscape:connector-curvature="0"
         style="clip-rule:evenodd" /></clipPath><clipPath
       clipPathUnits="userSpaceOnUse"
       id="clipPath4097"><path
         d="M 50.88,86.28 H 791.04 V 509.16 H 50.88 Z"
         id="path4095"
         inkscape:connector-curvature="0"
         style="clip-rule:evenodd" /></clipPath><clipPath
       clipPathUnits="userSpaceOnUse"
       id="clipPath4109"><path
         d="M 50.88,86.28 H 791.04 V 509.16 H 50.88 Z"
         id="path4107"
         inkscape:connector-curvature="0"
         style="clip-rule:evenodd" /></clipPath><clipPath
       clipPathUnits="userSpaceOnUse"
       id="clipPath4121"><path
         d="M 50.88,86.28 H 791.04 V 509.16 H 50.88 Z"
         id="path4119"
         inkscape:connector-curvature="0"
         style="clip-rule:evenodd" /></clipPath><clipPath
       clipPathUnits="userSpaceOnUse"
       id="clipPath4133"><path
         d="M 50.88,86.28 H 791.04 V 509.16 H 50.88 Z"
         id="path4131"
         inkscape:connector-curvature="0"
         style="clip-rule:evenodd" /></clipPath><clipPath
       clipPathUnits="userSpaceOnUse"
       id="clipPath4145"><path
         d="M 50.88,86.28 H 791.04 V 509.16 H 50.88 Z"
         id="path4143"
         inkscape:connector-curvature="0"
         style="clip-rule:evenodd" /></clipPath><clipPath
       clipPathUnits="userSpaceOnUse"
       id="clipPath4157"><path
         d="M 50.88,86.28 H 791.04 V 509.16 H 50.88 Z"
         id="path4155"
         inkscape:connector-curvature="0"
         style="clip-rule:evenodd" /></clipPath><clipPath
       clipPathUnits="userSpaceOnUse"
       id="clipPath4169"><path
         d="M 50.88,86.28 H 791.04 V 509.16 H 50.88 Z"
         id="path4167"
         inkscape:connector-curvature="0"
         style="clip-rule:evenodd" /></clipPath><clipPath
       clipPathUnits="userSpaceOnUse"
       id="clipPath4181"><path
         d="M 50.88,86.28 H 791.04 V 509.16 H 50.88 Z"
         id="path4179"
         inkscape:connector-curvature="0"
         style="clip-rule:evenodd" /></clipPath><clipPath
       clipPathUnits="userSpaceOnUse"
       id="clipPath4193"><path
         d="M 50.88,86.28 H 791.04 V 509.16 H 50.88 Z"
         id="path4191"
         inkscape:connector-curvature="0"
         style="clip-rule:evenodd" /></clipPath><clipPath
       clipPathUnits="userSpaceOnUse"
       id="clipPath4205"><path
         d="M 50.88,86.28 H 791.04 V 509.16 H 50.88 Z"
         id="path4203"
         inkscape:connector-curvature="0"
         style="clip-rule:evenodd" /></clipPath><clipPath
       clipPathUnits="userSpaceOnUse"
       id="clipPath4217"><path
         d="M 50.88,86.28 H 791.04 V 509.16 H 50.88 Z"
         id="path4215"
         inkscape:connector-curvature="0"
         style="clip-rule:evenodd" /></clipPath><clipPath
       clipPathUnits="userSpaceOnUse"
       id="clipPath4229"><path
         d="M 50.88,86.28 H 791.04 V 509.16 H 50.88 Z"
         id="path4227"
         inkscape:connector-curvature="0"
         style="clip-rule:evenodd" /></clipPath><clipPath
       clipPathUnits="userSpaceOnUse"
       id="clipPath4241"><path
         d="M 50.88,86.28 H 791.04 V 509.16 H 50.88 Z"
         id="path4239"
         inkscape:connector-curvature="0"
         style="clip-rule:evenodd" /></clipPath><clipPath
       clipPathUnits="userSpaceOnUse"
       id="clipPath4253"><path
         d="M 50.88,86.28 H 791.04 V 509.16 H 50.88 Z"
         id="path4251"
         inkscape:connector-curvature="0"
         style="clip-rule:evenodd" /></clipPath><clipPath
       clipPathUnits="userSpaceOnUse"
       id="clipPath4265"><path
         d="M 50.88,86.28 H 791.04 V 509.16 H 50.88 Z"
         id="path4263"
         inkscape:connector-curvature="0"
         style="clip-rule:evenodd" /></clipPath><clipPath
       clipPathUnits="userSpaceOnUse"
       id="clipPath4279"><path
         d="M 50.88,86.28 H 791.04 V 509.16 H 50.88 Z"
         id="path4277"
         inkscape:connector-curvature="0"
         style="clip-rule:evenodd" /></clipPath><clipPath
       clipPathUnits="userSpaceOnUse"
       id="clipPath4291"><path
         d="M 50.88,86.28 H 791.04 V 509.16 H 50.88 Z"
         id="path4289"
         inkscape:connector-curvature="0"
         style="clip-rule:evenodd" /></clipPath><clipPath
       clipPathUnits="userSpaceOnUse"
       id="clipPath4301"><path
         d="M 50.88,86.28 H 791.04 V 509.16 H 50.88 Z"
         id="path4299"
         inkscape:connector-curvature="0"
         style="clip-rule:evenodd" /></clipPath><clipPath
       clipPathUnits="userSpaceOnUse"
       id="clipPath4313"><path
         d="M 50.88,86.28 H 791.04 V 509.16 H 50.88 Z"
         id="path4311"
         inkscape:connector-curvature="0"
         style="clip-rule:evenodd" /></clipPath><clipPath
       clipPathUnits="userSpaceOnUse"
       id="clipPath4323"><path
         d="M 50.88,86.28 H 791.04 V 509.16 H 50.88 Z"
         id="path4321"
         inkscape:connector-curvature="0"
         style="clip-rule:evenodd" /></clipPath><clipPath
       clipPathUnits="userSpaceOnUse"
       id="clipPath4335"><path
         d="M 50.88,86.28 H 791.04 V 509.16 H 50.88 Z"
         id="path4333"
         inkscape:connector-curvature="0"
         style="clip-rule:evenodd" /></clipPath><clipPath
       clipPathUnits="userSpaceOnUse"
       id="clipPath4343"><path
         d="m 50.4,85.8 h 741 v 423.72 h -741 z"
         id="path4341"
         inkscape:connector-curvature="0"
         style="clip-rule:evenodd" /></clipPath><pattern
       y="0"
       x="0"
       height="6"
       width="6"
       patternUnits="userSpaceOnUse"
       id="EMFhbasepattern" /><pattern
       y="0"
       x="0"
       height="6"
       width="6"
       patternUnits="userSpaceOnUse"
       id="EMFhbasepattern-1" /></defs><sodipodi:namedview
     pagecolor="#ffffff"
     bordercolor="#666666"
     borderopacity="1"
     objecttolerance="10"
     gridtolerance="10"
     guidetolerance="10"
     inkscape:pageopacity="0"
     inkscape:pageshadow="2"
     inkscape:window-width="1920"
     inkscape:window-height="1017"
     id="namedview3715"
     showgrid="true"
     inkscape:zoom="0.59853833"
     inkscape:cx="106.94565"
     inkscape:cy="226.50393"
     inkscape:window-x="-8"
     inkscape:window-y="-8"
     inkscape:window-maximized="1"
     inkscape:current-layer="g3721"
     units="mm"><inkscape:grid
       type="xygrid"
       id="grid1127"
       units="mm"
       spacingx="3.7795275"
       spacingy="3.7795275"
       empspacing="10" /></sodipodi:namedview><g
     id="g3721"
     inkscape:groupmode="layer"
     inkscape:label="histogram_snp10_sns1_mn1_mx200000000"
     transform="matrix(1.3333333,0,0,-1.3333333,0,793.70081)"><path
       d="M 50.88,86.16 H 791.04 V 509.04 H 50.88 Z"
       style="fill:#ffffff;fill-opacity:1;fill-rule:evenodd;stroke:none"
       id="path3723"
       inkscape:connector-curvature="0" /><path
       d="m 147.80457,116.97875 h 597 v 378.6 h -597 z"
       style="fill:#ffffff;fill-opacity:1;fill-rule:evenodd;stroke:none"
       id="path3725"
       inkscape:connector-curvature="0" /><path
       d="m 147.80457,154.89875 h 597 m -597,37.8 h 597 m -597,37.92 h 597 m -597,37.8 h 597 m -597,37.92 h 597 m -597,37.8 h 597 m -597,37.92 h 597 m -597,37.8 h 597 m -597,37.92 h 597 m -597,37.8 h 597"
       style="fill:none;stroke:#868686;stroke-width:0.72000003;stroke-linecap:butt;stroke-linejoin:round;stroke-miterlimit:10;stroke-dasharray:none;stroke-opacity:1"
       id="path3727"
       inkscape:connector-curvature="0" /><path
       d="m 147.80457,116.97875 v 378.6"
       style="fill:none;stroke:#868686;stroke-width:0.72000003;stroke-linecap:butt;stroke-linejoin:round;stroke-miterlimit:10;stroke-dasharray:none;stroke-opacity:1"
       id="path3729"
       inkscape:connector-curvature="0" /><path
       d="m 144.44457,116.97875 h 3.36 m -3.36,37.92 h 3.36 m -3.36,37.8 h 3.36 m -3.36,37.92 h 3.36 m -3.36,37.8 h 3.36 m -3.36,37.92 h 3.36 m -3.36,37.8 h 3.36 m -3.36,37.92 h 3.36 m -3.36,37.8 h 3.36 m -3.36,37.92 h 3.36 m -3.36,37.8 h 3.36"
       style="fill:none;stroke:#868686;stroke-width:0.72000003;stroke-linecap:butt;stroke-linejoin:round;stroke-miterlimit:10;stroke-dasharray:none;stroke-opacity:1"
       id="path3731"
       inkscape:connector-curvature="0" /><path
       d="m 147.80457,116.97875 h 597"
       style="fill:none;stroke:#868686;stroke-width:0.72000003;stroke-linecap:butt;stroke-linejoin:round;stroke-miterlimit:10;stroke-dasharray:none;stroke-opacity:1"
       id="path3733"
       inkscape:connector-curvature="0" /><path
       d="m 147.80457,116.97875 v -3.36 m 6.12,3.36 v -3.36 m 6,3.36 v -3.36 m 6,3.36 v -3.36 m 6,3.36 v -3.36 m 6.12,3.36 v -3.36 m 6,3.36 v -3.36 m 6,3.36 v -3.36 m 6,3.36 v -3.36 m 6.12,3.36 v -3.36 m 6,3.36 v -3.36 m 6,3.36 v -3.36 m 6,3.36 v -3.36 m 6.12,3.36 v -3.36 m 6,3.36 v -3.36 m 6,3.36 v -3.36 m 6,3.36 v -3.36 m 6.12,3.36 v -3.36 m 6,3.36 v -3.36 m 6,3.36 v -3.36 m 6,3.36 v -3.36 m 6.12,3.36 v -3.36 m 6,3.36 v -3.36 m 6,3.36 v -3.36 m 6,3.36 v -3.36 m 6.12,3.36 v -3.36 m 6,3.36 v -3.36 m 6,3.36 v -3.36 m 6,3.36 v -3.36 m 6.12,3.36 v -3.36 m 6,3.36 v -3.36 m 6,3.36 v -3.36 m 6,3.36 v -3.36 m 6.12,3.36 v -3.36 m 6,3.36 v -3.36 m 6,3.36 v -3.36 m 6,3.36 v -3.36 m 6.12,3.36 v -3.36 m 6,3.36 v -3.36 m 6,3.36 v -3.36 m 6,3.36 v -3.36 m 6.12,3.36 v -3.36 m 6,3.36 v -3.36 m 6,3.36 v -3.36 m 6,3.36 v -3.36 m 6.12,3.36 v -3.36 m 6,3.36 v -3.36 m 6,3.36 v -3.36 m 6,3.36 v -3.36 m 6.12,3.36 v -3.36 m 6,3.36 v -3.36 m 6,3.36 v -3.36 m 6,3.36 v -3.36 m 6.12,3.36 v -3.36 m 6,3.36 v -3.36 m 6,3.36 v -3.36 m 6,3.36 v -3.36 m 6.12,3.36 v -3.36 m 6,3.36 v -3.36 m 6,3.36 v -3.36 m 6,3.36 v -3.36 m 6.12,3.36 v -3.36 m 6,3.36 v -3.36 m 6,3.36 v -3.36 m 6,3.36 v -3.36 m 6.12,3.36 v -3.36 m 6,3.36 v -3.36 m 6,3.36 v -3.36 m 6,3.36 v -3.36 m 6.12,3.36 v -3.36 m 6,3.36 v -3.36 m 6,3.36 v -3.36 m 6,3.36 v -3.36 m 6.12,3.36 v -3.36 m 6,3.36 v -3.36 m 6,3.36 v -3.36 m 6,3.36 v -3.36 m 6.12,3.36 v -3.36 m 6,3.36 v -3.36 m 6,3.36 v -3.36 m 6,3.36 v -3.36 m 6.12,3.36 v -3.36 m 6,3.36 v -3.36 m 6,3.36 v -3.36 m 6,3.36 v -3.36 m 6.12,3.36 v -3.36 m 6,3.36 v -3.36 m 6,3.36 v -3.36 m 6,3.36 v -3.36 m 6.12,3.36 v -3.36 m 6,3.36 v -3.36 m 6,3.36 v -3.36 m 6,3.36 v -3.36 m 6.12,3.36 v -3.36 m 6,3.36 v -3.36 m 6,3.36 v -3.36 m 6,3.36 v -3.36 m 6.12,3.36 v -3.36 m 6,3.36 v -3.36 m 6,3.36 v -3.36"
       style="fill:none;stroke:#868686;stroke-width:0.72000003;stroke-linecap:butt;stroke-linejoin:round;stroke-miterlimit:10;stroke-dasharray:none;stroke-opacity:1"
       id="path3735"
       inkscape:connector-curvature="0" /><path
       d="m 150.86457,185.91875 6,196.08 6,61.32 6.12,-19.68 6,-43.08 6,-6.12 6,-13.56 6.12,-16.68 6,-45.48 6,-12.84 6,-12.84 6.12,-4.56 6,-27.24 6,-3.12 6,-3.72 6.12,-17.4 6,-23.52 6,-0.72 6,-17.4 6.12,0.72 6,-3.72 6,-9.12 6,6.84 6.12,-6.84 6,4.56 6,-13.68 6,8.28 6.12,0.84 6,-2.28 6,-12.12 6,3 6.12,6.12 6,-9.12 6,0.72 6,4.56 6.12,-14.4 h 6 l 6,5.28 6,-3.72 6.12,3 6,-0.72 6,-6.84 6,9.12 6.12,-10.68 6,12.96 6,-1.56 6,-1.56 6.12,-3.72 6,6 6,-3 6,-3 h 6.12 l 6,2.28 6,1.44 6,6.84 6.12,-3 6,3.72 6,-4.44 6,-6.12 6.12,6.84 6,4.56 6,0.72 6,0.72 6.12,-11.28 6,9 6,12.96 6,-9.84 6.12,-6.12 6,1.56 6,15.84 6,-5.28 6.12,-10.56 6,-0.72 6,7.56 6.12,-6.12 6,2.28 6,-3 6,9.12 6.12,1.44 6,-6 6,-6.12 6,6.12 6.12,-6.84 6,5.28 6,7.56 6,-9.84 6.12,-7.56 6,1.56 6,5.28 6,-8.4 6.12,1.56 6,-8.28 6,6.72 6,9.84 6.12,-6 6,3 6,-5.28 6,3 6.12,-11.28"
       style="fill:none;stroke:#5f5f5f;stroke-width:2.27999997;stroke-linecap:round;stroke-linejoin:round;stroke-miterlimit:10;stroke-dasharray:none;stroke-opacity:1"
       id="path3737"
       inkscape:connector-curvature="0" /><g
       id="g3743"
       transform="translate(50.60457,-1.581255)"><g
         id="g3745"
         clip-path="url(#clipPath3749)"><text
   transform="matrix(1,0,0,-1,57.84,115.58)"
   style="font-variant:normal;font-weight:normal;font-size:10.58399963px;font-family:Calibri;-inkscape-font-specification:Calibri;writing-mode:lr-tb;fill:#000000;fill-opacity:1;fill-rule:nonzero;stroke:none"
   id="text3753"><tspan
     x="0 5.3660879 8.0120878 13.378176 18.881857 24.247944"
     y="0"
     sodipodi:role="line"
     id="tspan3751">0,0000</tspan></text>

</g></g><g
       id="g3755"
       transform="translate(50.60457,-1.581255)"><g
         id="g3757"
         clip-path="url(#clipPath3761)"><text
   transform="matrix(1,0,0,-1,57.84,153.43)"
   style="font-variant:normal;font-weight:normal;font-size:10.58399963px;font-family:Calibri;-inkscape-font-specification:Calibri;writing-mode:lr-tb;fill:#000000;fill-opacity:1;fill-rule:nonzero;stroke:none"
   id="text3765"><tspan
     x="0 5.3660879 8.0120878 13.378176 18.881857 24.247944"
     y="0"
     sodipodi:role="line"
     id="tspan3763">0,0005</tspan></text>

</g></g><g
       id="g3767"
       transform="translate(50.60457,-1.581255)"><g
         id="g3769"
         clip-path="url(#clipPath3773)"><text
   transform="matrix(1,0,0,-1,57.84,191.3)"
   style="font-variant:normal;font-weight:normal;font-size:10.58399963px;font-family:Calibri;-inkscape-font-specification:Calibri;writing-mode:lr-tb;fill:#000000;fill-opacity:1;fill-rule:nonzero;stroke:none"
   id="text3777"><tspan
     x="0 5.3660879 8.0120878 13.378176 18.881857 24.247944"
     y="0"
     sodipodi:role="line"
     id="tspan3775">0,0010</tspan></text>

</g></g><g
       id="g3779"
       transform="translate(50.60457,-1.581255)"><g
         id="g3781"
         clip-path="url(#clipPath3785)"><text
   transform="matrix(1,0,0,-1,57.84,229.18)"
   style="font-variant:normal;font-weight:normal;font-size:10.58399963px;font-family:Calibri;-inkscape-font-specification:Calibri;writing-mode:lr-tb;fill:#000000;fill-opacity:1;fill-rule:nonzero;stroke:none"
   id="text3789"><tspan
     x="0 5.3660879 8.0120878 13.378176 18.881857 24.247944"
     y="0"
     sodipodi:role="line"
     id="tspan3787">0,0015</tspan></text>

</g></g><g
       id="g3791"
       transform="translate(50.60457,-1.581255)"><g
         id="g3793"
         clip-path="url(#clipPath3797)"><text
   transform="matrix(1,0,0,-1,57.84,267.02)"
   style="font-variant:normal;font-weight:normal;font-size:10.58399963px;font-family:Calibri;-inkscape-font-specification:Calibri;writing-mode:lr-tb;fill:#000000;fill-opacity:1;fill-rule:nonzero;stroke:none"
   id="text3801"><tspan
     x="0 5.3660879 8.0120878 13.378176 18.881857 24.247944"
     y="0"
     sodipodi:role="line"
     id="tspan3799">0,0020</tspan></text>

</g></g><g
       id="g3803"
       transform="translate(50.60457,-1.581255)"><g
         id="g3805"
         clip-path="url(#clipPath3809)"><text
   transform="matrix(1,0,0,-1,57.84,304.9)"
   style="font-variant:normal;font-weight:normal;font-size:10.58399963px;font-family:Calibri;-inkscape-font-specification:Calibri;writing-mode:lr-tb;fill:#000000;fill-opacity:1;fill-rule:nonzero;stroke:none"
   id="text3813"><tspan
     x="0 5.3660879 8.0120878 13.378176 18.881857 24.247944"
     y="0"
     sodipodi:role="line"
     id="tspan3811">0,0025</tspan></text>

</g></g><g
       id="g3815"
       transform="translate(50.60457,-1.581255)"><g
         id="g3817"
         clip-path="url(#clipPath3821)"><text
   transform="matrix(1,0,0,-1,57.84,342.77)"
   style="font-variant:normal;font-weight:normal;font-size:10.58399963px;font-family:Calibri;-inkscape-font-specification:Calibri;writing-mode:lr-tb;fill:#000000;fill-opacity:1;fill-rule:nonzero;stroke:none"
   id="text3825"><tspan
     x="0 5.3660879 8.0120878 13.378176 18.881857 24.247944"
     y="0"
     sodipodi:role="line"
     id="tspan3823">0,0030</tspan></text>

</g></g><g
       id="g3827"
       transform="translate(50.60457,-1.581255)"><g
         id="g3829"
         clip-path="url(#clipPath3833)"><text
   transform="matrix(1,0,0,-1,57.84,380.64)"
   style="font-variant:normal;font-weight:normal;font-size:10.58399963px;font-family:Calibri;-inkscape-font-specification:Calibri;writing-mode:lr-tb;fill:#000000;fill-opacity:1;fill-rule:nonzero;stroke:none"
   id="text3837"><tspan
     x="0 5.3660879 8.0120878 13.378176 18.881857 24.247944"
     y="0"
     sodipodi:role="line"
     id="tspan3835">0,0035</tspan></text>

</g></g><g
       id="g3839"
       transform="translate(50.60457,-1.581255)"><g
         id="g3841"
         clip-path="url(#clipPath3845)"><text
   transform="matrix(1,0,0,-1,57.84,418.49)"
   style="font-variant:normal;font-weight:normal;font-size:10.58399963px;font-family:Calibri;-inkscape-font-specification:Calibri;writing-mode:lr-tb;fill:#000000;fill-opacity:1;fill-rule:nonzero;stroke:none"
   id="text3849"><tspan
     x="0 5.3660879 8.0120878 13.378176 18.881857 24.247944"
     y="0"
     sodipodi:role="line"
     id="tspan3847">0,0040</tspan></text>

</g></g><g
       id="g3851"
       transform="translate(50.60457,-1.581255)"><g
         id="g3853"
         clip-path="url(#clipPath3857)"><text
   transform="matrix(1,0,0,-1,57.84,456.36)"
   style="font-variant:normal;font-weight:normal;font-size:10.58399963px;font-family:Calibri;-inkscape-font-specification:Calibri;writing-mode:lr-tb;fill:#000000;fill-opacity:1;fill-rule:nonzero;stroke:none"
   id="text3861"><tspan
     x="0 5.3660879 8.0120878 13.378176 18.881857 24.247944"
     y="0"
     sodipodi:role="line"
     id="tspan3859">0,0045</tspan></text>

</g></g><g
       id="g3863"
       transform="translate(50.60457,-1.581255)"><g
         id="g3865"
         clip-path="url(#clipPath3869)"><text
   transform="matrix(1,0,0,-1,57.84,494.23)"
   style="font-variant:normal;font-weight:normal;font-size:10.58399963px;font-family:Calibri;-inkscape-font-specification:Calibri;writing-mode:lr-tb;fill:#000000;fill-opacity:1;fill-rule:nonzero;stroke:none"
   id="text3873"><tspan
     x="0 5.3660879 8.0120878 13.378176 18.881857 24.247944"
     y="0"
     sodipodi:role="line"
     id="tspan3871">0,0050</tspan></text>

</g></g><g
       id="g3875"
       transform="translate(50.60457,-1.581255)"><g
         id="g3877"
         clip-path="url(#clipPath3881)"><text
   transform="matrix(0,1,1,0,103.9,93.024)"
   style="font-variant:normal;font-weight:normal;font-size:10.58399963px;font-family:Calibri;-inkscape-font-specification:Calibri;writing-mode:lr-tb;fill:#000000;fill-opacity:1;fill-rule:nonzero;stroke:none"
   id="text3885"><tspan
     x="0 5.3660879 8.0120878 13.378176"
     y="0"
     sodipodi:role="line"
     id="tspan3883">0,02</tspan></text>

</g></g><g
       id="g3887"
       transform="translate(50.60457,-1.581255)"><g
         id="g3889"
         clip-path="url(#clipPath3893)"><text
   transform="matrix(0,1,1,0,121.99,93.024)"
   style="font-variant:normal;font-weight:normal;font-size:10.58399963px;font-family:Calibri;-inkscape-font-specification:Calibri;writing-mode:lr-tb;fill:#000000;fill-opacity:1;fill-rule:nonzero;stroke:none"
   id="text3897"><tspan
     x="0 5.3660879 8.0120878 13.378176"
     y="0"
     sodipodi:role="line"
     id="tspan3895">0,08</tspan></text>

</g></g><g
       id="g3899"
       transform="translate(50.60457,-1.581255)"><g
         id="g3901"
         clip-path="url(#clipPath3905)"><text
   transform="matrix(0,1,1,0,140.09,93.024)"
   style="font-variant:normal;font-weight:normal;font-size:10.58399963px;font-family:Calibri;-inkscape-font-specification:Calibri;writing-mode:lr-tb;fill:#000000;fill-opacity:1;fill-rule:nonzero;stroke:none"
   id="text3909"><tspan
     x="0 5.3660879 8.0120878 13.378176"
     y="0"
     sodipodi:role="line"
     id="tspan3907">0,14</tspan></text>

</g></g><g
       id="g3911"
       transform="translate(50.60457,-1.581255)"><g
         id="g3913"
         clip-path="url(#clipPath3917)"><text
   transform="matrix(0,1,1,0,158.18,93.024)"
   style="font-variant:normal;font-weight:normal;font-size:10.58399963px;font-family:Calibri;-inkscape-font-specification:Calibri;writing-mode:lr-tb;fill:#000000;fill-opacity:1;fill-rule:nonzero;stroke:none"
   id="text3921"><tspan
     x="0 5.3660879 8.0120878 13.378176"
     y="0"
     sodipodi:role="line"
     id="tspan3919">0,20</tspan></text>

</g></g><g
       id="g3923"
       transform="translate(50.60457,-1.581255)"><g
         id="g3925"
         clip-path="url(#clipPath3929)"><text
   transform="matrix(0,1,1,0,176.28,93.024)"
   style="font-variant:normal;font-weight:normal;font-size:10.58399963px;font-family:Calibri;-inkscape-font-specification:Calibri;writing-mode:lr-tb;fill:#000000;fill-opacity:1;fill-rule:nonzero;stroke:none"
   id="text3933"><tspan
     x="0 5.3660879 8.0120878 13.378176"
     y="0"
     sodipodi:role="line"
     id="tspan3931">0,26</tspan></text>

</g></g><g
       id="g3935"
       transform="translate(50.60457,-1.581255)"><g
         id="g3937"
         clip-path="url(#clipPath3941)"><text
   transform="matrix(0,1,1,0,194.38,93.024)"
   style="font-variant:normal;font-weight:normal;font-size:10.58399963px;font-family:Calibri;-inkscape-font-specification:Calibri;writing-mode:lr-tb;fill:#000000;fill-opacity:1;fill-rule:nonzero;stroke:none"
   id="text3945"><tspan
     x="0 5.3660879 8.0120878 13.378176"
     y="0"
     sodipodi:role="line"
     id="tspan3943">0,32</tspan></text>

</g></g><g
       id="g3947"
       transform="translate(50.60457,-1.581255)"><g
         id="g3949"
         clip-path="url(#clipPath3953)"><text
   transform="matrix(0,1,1,0,212.45,93.024)"
   style="font-variant:normal;font-weight:normal;font-size:10.58399963px;font-family:Calibri;-inkscape-font-specification:Calibri;writing-mode:lr-tb;fill:#000000;fill-opacity:1;fill-rule:nonzero;stroke:none"
   id="text3957"><tspan
     x="0 5.3660879 8.0120878 13.378176"
     y="0"
     sodipodi:role="line"
     id="tspan3955">0,38</tspan></text>

</g></g><g
       id="g3959"
       transform="translate(50.60457,-1.581255)"><g
         id="g3961"
         clip-path="url(#clipPath3965)"><text
   transform="matrix(0,1,1,0,230.54,93.024)"
   style="font-variant:normal;font-weight:normal;font-size:10.58399963px;font-family:Calibri;-inkscape-font-specification:Calibri;writing-mode:lr-tb;fill:#000000;fill-opacity:1;fill-rule:nonzero;stroke:none"
   id="text3969"><tspan
     x="0 5.3660879 8.0120878 13.378176"
     y="0"
     sodipodi:role="line"
     id="tspan3967">0,44</tspan></text>

</g></g><g
       id="g3971"
       transform="translate(50.60457,-1.581255)"><g
         id="g3973"
         clip-path="url(#clipPath3977)"><text
   transform="matrix(0,1,1,0,248.64,93.024)"
   style="font-variant:normal;font-weight:normal;font-size:10.58399963px;font-family:Calibri;-inkscape-font-specification:Calibri;writing-mode:lr-tb;fill:#000000;fill-opacity:1;fill-rule:nonzero;stroke:none"
   id="text3981"><tspan
     x="0 5.3660879 8.0120878 13.378176"
     y="0"
     sodipodi:role="line"
     id="tspan3979">0,50</tspan></text>

</g></g><g
       id="g3983"
       transform="translate(50.60457,-1.581255)"><g
         id="g3985"
         clip-path="url(#clipPath3989)"><text
   transform="matrix(0,1,1,0,266.74,93.024)"
   style="font-variant:normal;font-weight:normal;font-size:10.58399963px;font-family:Calibri;-inkscape-font-specification:Calibri;writing-mode:lr-tb;fill:#000000;fill-opacity:1;fill-rule:nonzero;stroke:none"
   id="text3993"><tspan
     x="0 5.3660879 8.0120878 13.378176"
     y="0"
     sodipodi:role="line"
     id="tspan3991">0,56</tspan></text>

</g></g><g
       id="g3995"
       transform="translate(50.60457,-1.581255)"><g
         id="g3997"
         clip-path="url(#clipPath4001)"><text
   transform="matrix(0,1,1,0,284.83,93.024)"
   style="font-variant:normal;font-weight:normal;font-size:10.58399963px;font-family:Calibri;-inkscape-font-specification:Calibri;writing-mode:lr-tb;fill:#000000;fill-opacity:1;fill-rule:nonzero;stroke:none"
   id="text4005"><tspan
     x="0 5.3660879 8.0120878 13.378176"
     y="0"
     sodipodi:role="line"
     id="tspan4003">0,62</tspan></text>

</g></g><g
       id="g4007"
       transform="translate(50.60457,-1.581255)"><g
         id="g4009"
         clip-path="url(#clipPath4013)"><text
   transform="matrix(0,1,1,0,302.93,93.024)"
   style="font-variant:normal;font-weight:normal;font-size:10.58399963px;font-family:Calibri;-inkscape-font-specification:Calibri;writing-mode:lr-tb;fill:#000000;fill-opacity:1;fill-rule:nonzero;stroke:none"
   id="text4017"><tspan
     x="0 5.3660879 8.0120878 13.378176"
     y="0"
     sodipodi:role="line"
     id="tspan4015">0,68</tspan></text>

</g></g><g
       id="g4019"
       transform="translate(50.60457,-1.581255)"><g
         id="g4021"
         clip-path="url(#clipPath4025)"><text
   transform="matrix(0,1,1,0,321.02,93.024)"
   style="font-variant:normal;font-weight:normal;font-size:10.58399963px;font-family:Calibri;-inkscape-font-specification:Calibri;writing-mode:lr-tb;fill:#000000;fill-opacity:1;fill-rule:nonzero;stroke:none"
   id="text4029"><tspan
     x="0 5.3660879 8.0120878 13.378176"
     y="0"
     sodipodi:role="line"
     id="tspan4027">0,74</tspan></text>

</g></g><g
       id="g4031"
       transform="translate(50.60457,-1.581255)"><g
         id="g4033"
         clip-path="url(#clipPath4037)"><text
   transform="matrix(0,1,1,0,339.12,93.024)"
   style="font-variant:normal;font-weight:normal;font-size:10.58399963px;font-family:Calibri;-inkscape-font-specification:Calibri;writing-mode:lr-tb;fill:#000000;fill-opacity:1;fill-rule:nonzero;stroke:none"
   id="text4041"><tspan
     x="0 5.3660879 8.0120878 13.378176"
     y="0"
     sodipodi:role="line"
     id="tspan4039">0,80</tspan></text>

</g></g><g
       id="g4043"
       transform="translate(50.60457,-1.581255)"><g
         id="g4045"
         clip-path="url(#clipPath4049)"><text
   transform="matrix(0,1,1,0,357.19,93.024)"
   style="font-variant:normal;font-weight:normal;font-size:10.58399963px;font-family:Calibri;-inkscape-font-specification:Calibri;writing-mode:lr-tb;fill:#000000;fill-opacity:1;fill-rule:nonzero;stroke:none"
   id="text4053"><tspan
     x="0 5.3660879 8.0120878 13.378176"
     y="0"
     sodipodi:role="line"
     id="tspan4051">0,86</tspan></text>

</g></g><g
       id="g4055"
       transform="translate(50.60457,-1.581255)"><g
         id="g4057"
         clip-path="url(#clipPath4061)"><text
   transform="matrix(0,1,1,0,375.29,93.024)"
   style="font-variant:normal;font-weight:normal;font-size:10.58399963px;font-family:Calibri;-inkscape-font-specification:Calibri;writing-mode:lr-tb;fill:#000000;fill-opacity:1;fill-rule:nonzero;stroke:none"
   id="text4065"><tspan
     x="0 5.3660879 8.0120878 13.378176"
     y="0"
     sodipodi:role="line"
     id="tspan4063">0,92</tspan></text>

</g></g><g
       id="g4067"
       transform="translate(50.60457,-1.581255)"><g
         id="g4069"
         clip-path="url(#clipPath4073)"><text
   transform="matrix(0,1,1,0,393.38,93.024)"
   style="font-variant:normal;font-weight:normal;font-size:10.58399963px;font-family:Calibri;-inkscape-font-specification:Calibri;writing-mode:lr-tb;fill:#000000;fill-opacity:1;fill-rule:nonzero;stroke:none"
   id="text4077"><tspan
     x="0 5.3660879 8.0120878 13.378176"
     y="0"
     sodipodi:role="line"
     id="tspan4075">0,98</tspan></text>

</g></g><g
       id="g4079"
       transform="translate(50.60457,-1.581255)"><g
         id="g4081"
         clip-path="url(#clipPath4085)"><text
   transform="matrix(0,1,1,0,411.48,93.024)"
   style="font-variant:normal;font-weight:normal;font-size:10.58399963px;font-family:Calibri;-inkscape-font-specification:Calibri;writing-mode:lr-tb;fill:#000000;fill-opacity:1;fill-rule:nonzero;stroke:none"
   id="text4089"><tspan
     x="0 5.3660879 8.0120878 13.378176"
     y="0"
     sodipodi:role="line"
     id="tspan4087">1,04</tspan></text>

</g></g><g
       id="g4091"
       transform="translate(50.60457,-1.581255)"><g
         id="g4093"
         clip-path="url(#clipPath4097)"><text
   transform="matrix(0,1,1,0,429.58,93.024)"
   style="font-variant:normal;font-weight:normal;font-size:10.58399963px;font-family:Calibri;-inkscape-font-specification:Calibri;writing-mode:lr-tb;fill:#000000;fill-opacity:1;fill-rule:nonzero;stroke:none"
   id="text4101"><tspan
     x="0 5.3660879 8.0120878 13.378176"
     y="0"
     sodipodi:role="line"
     id="tspan4099">1,10</tspan></text>

</g></g><g
       id="g4103"
       transform="translate(50.60457,-1.581255)"><g
         id="g4105"
         clip-path="url(#clipPath4109)"><text
   transform="matrix(0,1,1,0,447.67,93.024)"
   style="font-variant:normal;font-weight:normal;font-size:10.58399963px;font-family:Calibri;-inkscape-font-specification:Calibri;writing-mode:lr-tb;fill:#000000;fill-opacity:1;fill-rule:nonzero;stroke:none"
   id="text4113"><tspan
     x="0 5.3660879 8.0120878 13.378176"
     y="0"
     sodipodi:role="line"
     id="tspan4111">1,16</tspan></text>

</g></g><g
       id="g4115"
       transform="translate(50.60457,-1.581255)"><g
         id="g4117"
         clip-path="url(#clipPath4121)"><text
   transform="matrix(0,1,1,0,465.77,93.024)"
   style="font-variant:normal;font-weight:normal;font-size:10.58399963px;font-family:Calibri;-inkscape-font-specification:Calibri;writing-mode:lr-tb;fill:#000000;fill-opacity:1;fill-rule:nonzero;stroke:none"
   id="text4125"><tspan
     x="0 5.3660879 8.0120878 13.378176"
     y="0"
     sodipodi:role="line"
     id="tspan4123">1,22</tspan></text>

</g></g><g
       id="g4127"
       transform="translate(50.60457,-1.581255)"><g
         id="g4129"
         clip-path="url(#clipPath4133)"><text
   transform="matrix(0,1,1,0,483.86,93.024)"
   style="font-variant:normal;font-weight:normal;font-size:10.58399963px;font-family:Calibri;-inkscape-font-specification:Calibri;writing-mode:lr-tb;fill:#000000;fill-opacity:1;fill-rule:nonzero;stroke:none"
   id="text4137"><tspan
     x="0 5.3660879 8.0120878 13.378176"
     y="0"
     sodipodi:role="line"
     id="tspan4135">1,28</tspan></text>

</g></g><g
       id="g4139"
       transform="translate(50.60457,-1.581255)"><g
         id="g4141"
         clip-path="url(#clipPath4145)"><text
   transform="matrix(0,1,1,0,501.94,93.024)"
   style="font-variant:normal;font-weight:normal;font-size:10.58399963px;font-family:Calibri;-inkscape-font-specification:Calibri;writing-mode:lr-tb;fill:#000000;fill-opacity:1;fill-rule:nonzero;stroke:none"
   id="text4149"><tspan
     x="0 5.3660879 8.0120878 13.378176"
     y="0"
     sodipodi:role="line"
     id="tspan4147">1,34</tspan></text>

</g></g><g
       id="g4151"
       transform="translate(50.60457,-1.581255)"><g
         id="g4153"
         clip-path="url(#clipPath4157)"><text
   transform="matrix(0,1,1,0,520.03,93.024)"
   style="font-variant:normal;font-weight:normal;font-size:10.58399963px;font-family:Calibri;-inkscape-font-specification:Calibri;writing-mode:lr-tb;fill:#000000;fill-opacity:1;fill-rule:nonzero;stroke:none"
   id="text4161"><tspan
     x="0 5.3660879 8.0120878 13.378176"
     y="0"
     sodipodi:role="line"
     id="tspan4159">1,40</tspan></text>

</g></g><g
       id="g4163"
       transform="translate(50.60457,-1.581255)"><g
         id="g4165"
         clip-path="url(#clipPath4169)"><text
   transform="matrix(0,1,1,0,538.13,93.024)"
   style="font-variant:normal;font-weight:normal;font-size:10.58399963px;font-family:Calibri;-inkscape-font-specification:Calibri;writing-mode:lr-tb;fill:#000000;fill-opacity:1;fill-rule:nonzero;stroke:none"
   id="text4173"><tspan
     x="0 5.3660879 8.0120878 13.378176"
     y="0"
     sodipodi:role="line"
     id="tspan4171">1,46</tspan></text>

</g></g><g
       id="g4175"
       transform="translate(50.60457,-1.581255)"><g
         id="g4177"
         clip-path="url(#clipPath4181)"><text
   transform="matrix(0,1,1,0,556.22,93.024)"
   style="font-variant:normal;font-weight:normal;font-size:10.58399963px;font-family:Calibri;-inkscape-font-specification:Calibri;writing-mode:lr-tb;fill:#000000;fill-opacity:1;fill-rule:nonzero;stroke:none"
   id="text4185"><tspan
     x="0 5.3660879 8.0120878 13.378176"
     y="0"
     sodipodi:role="line"
     id="tspan4183">1,52</tspan></text>

</g></g><g
       id="g4187"
       transform="translate(50.60457,-1.581255)"><g
         id="g4189"
         clip-path="url(#clipPath4193)"><text
   transform="matrix(0,1,1,0,574.32,93.024)"
   style="font-variant:normal;font-weight:normal;font-size:10.58399963px;font-family:Calibri;-inkscape-font-specification:Calibri;writing-mode:lr-tb;fill:#000000;fill-opacity:1;fill-rule:nonzero;stroke:none"
   id="text4197"><tspan
     x="0 5.3660879 8.0120878 13.378176"
     y="0"
     sodipodi:role="line"
     id="tspan4195">1,58</tspan></text>

</g></g><g
       id="g4199"
       transform="translate(50.60457,-1.581255)"><g
         id="g4201"
         clip-path="url(#clipPath4205)"><text
   transform="matrix(0,1,1,0,592.42,93.024)"
   style="font-variant:normal;font-weight:normal;font-size:10.58399963px;font-family:Calibri;-inkscape-font-specification:Calibri;writing-mode:lr-tb;fill:#000000;fill-opacity:1;fill-rule:nonzero;stroke:none"
   id="text4209"><tspan
     x="0 5.3660879 8.0120878 13.378176"
     y="0"
     sodipodi:role="line"
     id="tspan4207">1,64</tspan></text>

</g></g><g
       id="g4211"
       transform="translate(50.60457,-1.581255)"><g
         id="g4213"
         clip-path="url(#clipPath4217)"><text
   transform="matrix(0,1,1,0,610.51,93.024)"
   style="font-variant:normal;font-weight:normal;font-size:10.58399963px;font-family:Calibri;-inkscape-font-specification:Calibri;writing-mode:lr-tb;fill:#000000;fill-opacity:1;fill-rule:nonzero;stroke:none"
   id="text4221"><tspan
     x="0 5.3660879 8.0120878 13.378176"
     y="0"
     sodipodi:role="line"
     id="tspan4219">1,70</tspan></text>

</g></g><g
       id="g4223"
       transform="translate(50.60457,-1.581255)"><g
         id="g4225"
         clip-path="url(#clipPath4229)"><text
   transform="matrix(0,1,1,0,628.61,93.024)"
   style="font-variant:normal;font-weight:normal;font-size:10.58399963px;font-family:Calibri;-inkscape-font-specification:Calibri;writing-mode:lr-tb;fill:#000000;fill-opacity:1;fill-rule:nonzero;stroke:none"
   id="text4233"><tspan
     x="0 5.3660879 8.0120878 13.378176"
     y="0"
     sodipodi:role="line"
     id="tspan4231">1,76</tspan></text>

</g></g><g
       id="g4235"
       transform="translate(50.60457,-1.581255)"><g
         id="g4237"
         clip-path="url(#clipPath4241)"><text
   transform="matrix(0,1,1,0,646.68,93.024)"
   style="font-variant:normal;font-weight:normal;font-size:10.58399963px;font-family:Calibri;-inkscape-font-specification:Calibri;writing-mode:lr-tb;fill:#000000;fill-opacity:1;fill-rule:nonzero;stroke:none"
   id="text4245"><tspan
     x="0 5.3660879 8.0120878 13.378176"
     y="0"
     sodipodi:role="line"
     id="tspan4243">1,82</tspan></text>

</g></g><g
       id="g4247"
       transform="translate(50.60457,-1.581255)"><g
         id="g4249"
         clip-path="url(#clipPath4253)"><text
   transform="matrix(0,1,1,0,664.78,93.024)"
   style="font-variant:normal;font-weight:normal;font-size:10.58399963px;font-family:Calibri;-inkscape-font-specification:Calibri;writing-mode:lr-tb;fill:#000000;fill-opacity:1;fill-rule:nonzero;stroke:none"
   id="text4257"><tspan
     x="0 5.3660879 8.0120878 13.378176"
     y="0"
     sodipodi:role="line"
     id="tspan4255">1,88</tspan></text>

</g></g><g
       id="g4259"
       transform="translate(50.60457,-1.581255)"><g
         id="g4261"
         clip-path="url(#clipPath4265)"><text
   transform="matrix(0,1,1,0,682.87,93.024)"
   style="font-variant:normal;font-weight:normal;font-size:10.58399963px;font-family:Calibri;-inkscape-font-specification:Calibri;writing-mode:lr-tb;fill:#000000;fill-opacity:1;fill-rule:nonzero;stroke:none"
   id="text4269"><tspan
     x="0 5.3660879 8.0120878 13.378176"
     y="0"
     sodipodi:role="line"
     id="tspan4267">1,94</tspan></text>

</g></g><g
       id="g4285"><g
         id="g4287"
         clip-path="url(#clipPath4291)" /></g><g
       id="g4307"><g
         id="g4309"
         clip-path="url(#clipPath4313)" /></g><g
       id="g4329"><g
         id="g4331"
         clip-path="url(#clipPath4335)" /></g><g
       id="g4337"><g
         id="g4339"
         clip-path="url(#clipPath4343)" /></g><text
       xml:space="preserve"
       style="font-style:normal;font-variant:normal;font-weight:normal;font-stretch:normal;font-size:10px;line-height:1.25;font-family:sans-serif;-inkscape-font-specification:'sans-serif, Normal';font-variant-ligatures:normal;font-variant-caps:normal;font-variant-numeric:normal;font-feature-settings:normal;text-align:start;letter-spacing:0px;word-spacing:0px;writing-mode:lr-tb;text-anchor:start;fill:#000000;fill-opacity:1;stroke:none;stroke-width:0.75"
       x="751.51733"
       y="-93.612732"
       id="text1125-2"
       transform="scale(1,-1)"><tspan
         sodipodi:role="line"
         id="tspan1123-3"
         x="751.51733"
         y="-84.489426"
         style="font-style:normal;font-variant:normal;font-weight:normal;font-stretch:normal;font-size:14px;font-family:sans-serif;-inkscape-font-specification:'sans-serif, Normal';font-variant-ligatures:normal;font-variant-caps:normal;font-variant-numeric:normal;font-feature-settings:normal;text-align:start;writing-mode:lr-tb;text-anchor:start;stroke-width:0.75" /></text>
<text
       id="text4861"
       y="-91.362885"
       x="765.23383"
       transform="scale(1,-1)"
       style="font-style:normal;font-variant:normal;font-weight:400;font-size:11.015625px;line-height:125%;font-family:Calibri;text-align:start;letter-spacing:0px;word-spacing:0px;text-anchor:start;fill:#000000;fill-opacity:1;stroke:none;stroke-width:0.75"
       xml:space="preserve"><tspan
         id="tspan4859"
         y="-91.362885"
         x="765.23383"
         sodipodi:role="line"
         style="font-style:normal;font-variant:normal;font-weight:normal;font-stretch:normal;font-size:18px;font-family:Calibri;-inkscape-font-specification:'Calibri, Normal';font-variant-ligatures:normal;font-variant-caps:normal;font-variant-numeric:normal;font-feature-settings:normal;text-align:start;writing-mode:lr-tb;text-anchor:start;stroke-width:0.75"><tspan
           id="tspan4853"
           style="font-style:normal;font-variant:normal;font-weight:normal;font-stretch:normal;font-size:18px;font-family:Calibri;-inkscape-font-specification:'Calibri, Normal';font-variant-ligatures:normal;font-variant-caps:normal;font-variant-numeric:normal;font-feature-settings:normal;text-align:start;writing-mode:lr-tb;text-anchor:start;fill:#000000;stroke-width:0.75"
           dy="0 0"
           dx="0 0">Δζ</tspan></tspan></text>
<text
       id="text4927"
       y="-493.12909"
       x="84.604736"
       transform="scale(1,-1)"
       style="font-style:normal;font-variant:normal;font-weight:400;font-size:11.015625px;line-height:125%;font-family:Calibri;text-align:start;letter-spacing:0px;word-spacing:0px;text-anchor:start;fill:#000000;fill-opacity:1;stroke:none;stroke-width:0.75"
       xml:space="preserve"><tspan
         id="tspan4925"
         y="-493.12909"
         x="84.604736"
         sodipodi:role="line"
         style="stroke-width:0.75"><tspan
           id="tspan4921"
           style="font-style:normal;font-variant:normal;font-weight:normal;font-stretch:normal;font-size:18px;font-family:Calibri;-inkscape-font-specification:'Calibri, Normal';font-variant-ligatures:normal;font-variant-caps:normal;font-variant-numeric:normal;font-feature-settings:normal;text-align:start;writing-mode:lr-tb;text-anchor:start;fill:#000000;stroke-width:0.75"
           dy="0"
           dx="0">ω</tspan><tspan
           id="tspan4923"
           style="font-style:normal;font-variant:normal;font-weight:400;font-size:11.015625px;font-family:Calibri;fill:#000000;stroke-width:0.75"
           dy="0"
           dx="0"> </tspan></tspan></text>
</g></svg>